<svg width="27" height="26" viewBox="0 0 27 26" fill="none" xmlns="http://www.w3.org/2000/svg">
<path d="M20.5312 25.25H5.9375V9.25L14.625 0.25L15.6562 1.0625C15.8854 1.22917 16.0365 1.41667 16.1094 1.625C16.1823 1.83333 16.2188 2.07292 16.2188 2.34375V2.65625L14.8125 9.25H24.875C25.3542 9.25 25.7865 9.44271 26.1719 9.82812C26.5573 10.2135 26.75 10.6458 26.75 11.125V13.6875C26.75 13.9167 26.724 14.1823 26.6719 14.4844C26.6198 14.7865 26.5417 15.0521 26.4375 15.2812L22.8125 23.6562C22.625 24.0938 22.3177 24.4688 21.8906 24.7812C21.4635 25.0938 21.0104 25.25 20.5312 25.25ZM4.0625 9.25V25.25H0.5V9.25H4.0625Z" fill="#A1B6FF"/>
</svg>
